Coordinates
version=1
nRows=30
nColumns=33
inDegrees=yes

Units are S.I. units (second, meters, Newtons, ...)
Angles are in degrees.

endheader
time	ground_thorax_rot_x	ground_thorax_rot_y	ground_thorax_rot_z	ground_thorax_tx	ground_thorax_ty	ground_thorax_tz	clav_prot_r	clav_elev_r	scapula_abduction_r	scapula_elevation_r	scapula_upward_rot_r	scapula_winging_r	shoulder_elv_r	plane_of_elev_r	axial_rot_r	elbow_flexion_r	pro_sup_r	wrist_flex_r	wrist_dev_r	clav_prot_l	clav_elev_l	scapula_abduction_l	scapula_elevation_l	scapula_upward_rot_l	scapula_winging_l	shoulder_elv_l	plane_of_elev_l	axial_rot_l	elbow_flexion_l	pro_sup_l	wrist_flex_l	wrist_dev_l	
8.8700	-39.077800	-15.339791	23.931802	-230.524429	836.562119	-7.701545	5.930994	-45.000000	38.114629	-45.000000	-34.871415	-2262.116864	-2627.595483	147.592347	-111.023108	1107.203274	-226.722682	13.330594	4.827702	15.146703	37.913659	-37.305302	-45.000000	-45.000000	2244.951205	-2611.686884	134.231739	-180.000000	-347.885105	392.823143	3.860014	-21.365386	
8.8800	-39.171589	-15.167433	23.720096	-232.262840	837.021081	-7.742980	5.937185	-45.000000	38.064121	-45.000000	-35.031254	-2262.174765	-2627.552119	147.593187	-111.000427	1107.159115	-227.063740	13.300976	4.900554	15.107396	37.901851	-37.239421	-45.000000	-45.000000	2244.979969	-2611.643728	134.269327	-180.000000	-347.844743	393.701901	3.672083	-21.330977	
8.8900	-39.262405	-15.000255	23.507526	-233.978533	837.457464	-7.784225	5.942642	-45.000000	38.013117	-45.000000	-35.198087	-2262.228634	-2627.513377	147.595049	-110.993595	1107.102651	-227.470223	13.272937	4.974969	15.064118	37.894469	-37.170005	-45.000000	-45.000000	2245.000546	-2611.604120	134.312983	-180.000000	-347.803844	394.623702	3.486405	-21.295464	
8.9000	-39.350934	-14.837693	23.295683	-235.674220	837.872554	-7.826089	5.947641	-45.000000	37.958154	-45.000000	-35.374128	-2262.280382	-2627.477857	147.592622	-110.997739	1107.035964	-227.937243	13.247030	5.049287	15.020642	37.885692	-37.096832	-45.000000	-45.000000	2245.019237	-2611.563325	134.355515	-180.000000	-347.762950	395.580781	3.300266	-21.255952	
8.9100	-39.434955	-14.683016	23.085540	-237.352202	838.267602	-7.869641	5.954538	-45.000000	37.903480	-45.000000	-35.560413	-2262.330638	-2627.443302	147.585948	-111.012622	1106.965461	-228.461973	13.223521	5.119751	14.980360	37.871179	-37.017380	-45.000000	-45.000000	2245.038895	-2611.525661	134.394132	-180.000000	-347.722386	396.571497	3.113936	-21.211639	
8.9200	-39.517425	-14.529345	22.874344	-239.014097	838.643531	-7.915992	5.959932	-45.000000	37.844440	-45.000000	-35.750927	-2262.379196	-2627.410953	147.573567	-111.037657	1106.888094	-229.036999	13.201717	5.188140	14.938100	37.857686	-36.934729	-45.000000	-45.000000	2245.056594	-2611.483535	134.429522	-180.000000	-347.681794	397.588692	2.930087	-21.164746	
8.9300	-39.595259	-14.381853	22.668473	-240.660892	839.000689	-7.966076	5.966512	-45.000000	37.784697	-45.000000	-35.947580	-2262.428928	-2627.378744	147.558935	-111.073002	1106.812194	-229.657029	13.182987	5.249345	14.899643	37.837893	-36.847244	-45.000000	-45.000000	2245.077373	-2611.443475	134.459102	-180.000000	-347.638957	398.629432	2.747137	-21.113216	
8.9400	-39.668714	-14.240422	22.470004	-242.293145	839.338606	-8.020464	5.974562	-45.000000	37.723037	-45.000000	-36.151244	-2262.480730	-2627.346094	147.540527	-111.116281	1106.740499	-230.315322	13.166855	5.302721	14.863685	37.813189	-36.755847	-45.000000	-45.000000	2245.103608	-2611.403367	134.483950	-180.000000	-347.588499	399.691557	2.564400	-21.058190	
8.9500	-39.735027	-14.109530	22.284559	-243.911508	839.655925	-8.079232	5.986158	-45.000000	37.663183	-45.000000	-36.362175	-2262.536458	-2627.312708	147.524785	-111.168809	1106.679013	-231.007614	13.153693	5.344829	14.832740	37.780773	-36.660152	-45.000000	-45.000000	2245.136142	-2611.371911	134.506458	-180.000000	-347.527348	400.779969	2.381384	-20.999328	
8.9600	-39.796889	-13.984213	22.106465	-245.516992	839.950463	-8.141920	5.998514	-45.000000	37.603138	-45.000000	-36.580127	-2262.591498	-2627.281655	147.511218	-111.228998	1106.616498	-231.725197	13.143030	5.380783	14.799462	37.750416	-36.562279	-45.000000	-45.000000	2245.165469	-2611.346178	134.534144	-180.000000	-347.460016	401.895289	2.201286	-20.939272	
8.9700	-39.853697	-13.865159	21.937613	-247.110837	840.219362	-8.207556	6.011619	-45.000000	37.542802	-45.000000	-36.804168	-2262.646186	-2627.254175	147.503146	-111.294358	1106.555139	-232.461977	13.135675	5.408767	14.767091	37.718332	-36.462052	-45.000000	-45.000000	2245.192881	-2611.329894	134.565206	-180.000000	-347.386038	403.036297	2.023390	-20.876148	
8.9800	-39.907024	-13.749053	21.771930	-248.694381	840.459368	-8.274803	6.024536	-45.000000	37.480244	-45.000000	-37.036382	-2262.696866	-2627.231542	147.495835	-111.357975	1106.490096	-233.210561	13.130840	5.431897	14.732354	37.688349	-36.357572	-45.000000	-45.000000	2245.213782	-2611.319453	134.599665	-180.000000	-347.310402	404.197844	1.849587	-20.810767	
8.9900	-39.957537	-13.633923	21.607610	-250.268487	840.667023	-8.342140	6.035850	-45.000000	37.413935	-45.000000	-37.272431	-2262.743273	-2627.214348	147.490232	-111.412766	1106.421393	-233.963372	13.129704	5.449717	14.696838	37.658159	-36.247677	-45.000000	-45.000000	2245.228095	-2611.313123	134.633034	-180.000000	-347.237992	405.370252	1.681068	-20.741728	
9.0000	-40.009029	-13.512259	21.436047	-251.833222	840.838778	-8.408091	6.041534	-45.000000	37.339800	-45.000000	-37.505611	-2262.781588	-2627.205908	147.485406	-111.452314	1106.340890	-234.707607	13.132098	5.467260	14.653417	37.637576	-36.131394	-45.000000	-45.000000	2245.226275	-2611.303696	134.667102	-180.000000	-347.175267	406.535119	1.523896	-20.673107	
9.0100	-40.061691	-13.383331	21.257099	-253.387158	840.970901	-8.471364	6.041763	-45.000000	37.257675	-45.000000	-37.731804	-2262.813367	-2627.204495	147.480811	-111.465790	1106.253943	-235.432149	13.140517	5.482002	14.607792	37.619125	-36.006816	-45.000000	-45.000000	2245.213238	-2611.288184	134.694047	-180.000000	-347.123752	407.670399	1.377940	-20.603252	
9.0200	-40.113519	-13.251461	21.075929	-254.927941	841.059455	-8.530951	6.037336	-45.000000	37.170105	-45.000000	-37.959309	-2262.840275	-2627.207942	147.477514	-111.453241	1106.166295	-236.128154	13.152460	5.494889	14.559998	37.603993	-35.875180	-45.000000	-45.000000	2245.190922	-2611.274613	134.717270	-180.000000	-347.081872	408.760747	1.246377	-20.535268	
9.0300	-40.164086	-13.121270	20.896950	-256.452255	841.100250	-8.586070	6.030869	-45.000000	37.076860	-45.000000	-38.194902	-2262.863411	-2627.214206	147.473327	-111.418318	1106.080373	-236.789261	13.168906	5.505375	14.512674	37.588660	-35.736036	-45.000000	-45.000000	2245.162756	-2611.262876	134.739492	-180.000000	-347.045994	409.795663	1.128817	-20.470597	
9.0400	-40.209854	-13.000347	20.729998	-257.956307	841.089025	-8.636059	6.023848	-45.000000	36.982477	-45.000000	-38.441339	-2262.885303	-2627.223068	147.471490	-111.367293	1106.002192	-237.413918	13.187952	5.512668	14.467706	37.570203	-35.593103	-45.000000	-45.000000	2245.136793	-2611.264220	134.762580	-180.000000	-347.011988	410.771937	1.024108	-20.409274	
9.0500	-40.251938	-12.890508	20.577734	-259.436017	841.021747	-8.680188	6.020154	-45.000000	36.886087	-45.000000	-38.688871	-2262.907897	-2627.237453	147.473174	-111.300223	1105.930847	-238.004183	13.210174	5.516818	14.426269	37.548690	-35.444749	-45.000000	-45.000000	2245.110856	-2611.271942	134.790967	-180.000000	-346.976577	411.691525	0.931361	-20.353365	
9.0600	-40.286693	-12.798731	20.448800	-260.887294	840.895046	-8.717551	6.018130	-45.000000	36.800364	-45.000000	-38.923237	-2262.935043	-2627.258554	147.490482	-111.216827	1105.869427	-238.565730	13.232299	5.517916	14.388524	37.521249	-35.300552	-45.000000	-45.000000	2245.093207	-2611.303929	134.826749	-180.000000	-346.945409	412.561239	0.848797	-20.298740	
9.0700	-40.316951	-12.720867	20.346380	-262.305824	840.706629	-8.746965	6.023293	-45.000000	36.719637	-45.000000	-39.147969	-2262.969797	-2627.290969	147.522175	-111.114315	1105.811972	-239.104727	13.253373	5.518584	14.355134	37.493057	-35.158582	-45.000000	-45.000000	2245.073777	-2611.345485	134.874958	-180.000000	-346.913600	413.389533	0.776065	-20.249626	
9.0800	-40.343515	-12.648983	20.261998	-263.686712	840.455660	-8.767014	6.031059	-45.000000	36.643660	-45.000000	-39.370535	-2263.007369	-2627.331880	147.565099	-111.000426	1105.754807	-239.621548	13.273348	5.520243	14.320430	37.465765	-35.017906	-45.000000	-45.000000	2245.050789	-2611.393459	134.923988	-180.000000	-346.888003	414.179131	0.713996	-20.205687	
9.0900	-40.367609	-12.588547	20.201330	-265.024396	840.142974	-8.776118	6.042546	-45.000000	36.561211	-45.000000	-39.622632	-2263.045411	-2627.381065	147.606708	-110.889870	1105.695237	-240.113099	13.291157	5.525264	14.287053	37.442313	-34.877730	-45.000000	-45.000000	2245.018368	-2611.445974	134.984801	-180.000000	-346.868958	414.928150	0.662962	-20.168172	
9.1000	-40.389255	-12.536850	20.155716	-266.312458	839.771273	-8.772732	6.057183	-45.000000	36.483007	-45.000000	-39.898686	-2263.080675	-2627.433420	147.649667	-110.798789	1105.637526	-240.576957	13.308248	5.531751	14.255180	37.418541	-34.740195	-45.000000	-45.000000	2244.984663	-2611.509421	135.045775	-180.000000	-346.860755	415.634873	0.623155	-20.136113	
9.1100	-40.409401	-12.498838	20.132977	-267.544013	839.345043	-8.755494	6.079062	-45.000000	36.396383	-45.000000	-40.222554	-2263.113750	-2627.490459	147.681995	-110.735815	1105.584221	-241.012156	13.321957	5.541029	14.229442	37.396200	-34.601807	-45.000000	-45.000000	2244.946752	-2611.577931	135.114052	-180.000000	-346.854592	416.298226	0.593172	-20.111609	
9.1200	-40.432092	-12.461417	20.112984	-268.711160	838.870762	-8.723429	6.103445	-45.000000	36.304081	-45.000000	-40.565250	-2263.138556	-2627.547420	147.705070	-110.701440	1105.535945	-241.413963	13.338050	5.550210	14.203869	37.374326	-34.456765	-45.000000	-45.000000	2244.905652	-2611.637587	135.169910	-180.000000	-346.852733	416.910610	0.573472	-20.094510	
9.1300	-40.456028	-12.435913	20.108628	-269.805887	838.356597	-8.676024	6.127808	-45.000000	36.197923	-45.000000	-40.935648	-2263.157124	-2627.605139	147.713385	-110.690262	1105.493357	-241.777182	13.352266	5.561780	14.181558	37.353990	-34.308334	-45.000000	-45.000000	2244.861019	-2611.693428	135.225616	-180.000000	-346.858957	417.462125	0.563294	-20.081149	
9.1400	-40.482193	-12.413401	20.109359	-270.819842	837.812430	-8.613311	6.151743	-45.000000	36.091493	-45.000000	-41.296837	-2263.169891	-2627.661115	147.718976	-110.698737	1105.455098	-242.097807	13.367881	5.574398	14.159757	37.334354	-34.159924	-45.000000	-45.000000	2244.814807	-2611.743030	135.269346	-180.000000	-346.879473	417.944997	0.563852	-20.071386	
9.1500	-40.507099	-12.401331	20.128501	-271.745566	837.249202	-8.535822	6.176131	-45.000000	35.978567	-45.000000	-41.673229	-2263.179145	-2627.714709	147.714094	-110.723758	1105.418919	-242.374087	13.379787	5.591171	14.141716	37.317371	-34.014634	-45.000000	-45.000000	2244.764880	-2611.790138	135.310210	-180.000000	-346.914333	418.354621	0.573631	-20.063021	
9.1600	-40.531412	-12.393976	20.157725	-272.576575	836.678848	-8.444640	6.199416	-45.000000	35.864161	-45.000000	-42.052573	-2263.183294	-2627.760896	147.700606	-110.774719	1105.382045	-242.603252	13.391056	5.610980	14.123294	37.303697	-33.875022	-45.000000	-45.000000	2244.713478	-2611.832312	135.341719	-180.000000	-346.963088	418.687091	0.592378	-20.056266	
